<svg id="Capa_1" data-name="Capa 1" xmlns="http://www.w3.org/2000/svg" viewBox="0 0 98 97.97"><defs><style>.cls-1{fill:#fff;}</style></defs><title>ig</title><path class="cls-1" d="M98.66,70.2C98.27,78,96.48,85,90.74,90.72s-12.68,7.55-20.53,7.92c-8.09.46-32.32.46-40.41,0C21.94,98.25,15,96.46,9.26,90.72S1.72,78,1.35,70.2c-.47-8.09-.47-32.33,0-40.42C1.74,21.93,3.51,15,9.26,9.25S22,1.73,29.8,1.36C37.89.9,62.12.9,70.21,1.36c7.85.39,14.8,2.18,20.53,7.91S98.28,22,98.66,29.8C99.11,37.89,99.11,62.11,98.66,70.2ZM90.18,50c0-7.13.58-22.43-2-28.88a16.58,16.58,0,0,0-9.32-9.32c-6.42-2.53-21.75-2-28.87-2s-22.44-.59-28.89,2a16.58,16.58,0,0,0-9.32,9.32c-2.52,6.42-2,21.75-2,28.88s-.59,22.43,2,28.88a16.57,16.57,0,0,0,9.32,9.31c6.43,2.53,21.76,2,28.89,2s22.42.59,28.87-2a16.6,16.6,0,0,0,9.32-9.31C90.76,72.45,90.18,57.13,90.18,50ZM75.13,50A25.12,25.12,0,1,1,50,24.88,25.08,25.08,0,0,1,75.13,50Zm-8.78,0A16.34,16.34,0,1,0,50,66.33,16.36,16.36,0,0,0,66.35,50Zm9.81-20.29A5.86,5.86,0,1,1,82,23.85,5.85,5.85,0,0,1,76.16,29.71Z" transform="translate(-1 -1.01)"/></svg>